<svg width="24" height="24" viewBox="0 0 24 24" fill="none" xmlns="http://www.w3.org/2000/svg">
<path d="M11.9754 2C16.0253 2 19.3321 5.19475 19.4712 9.24906L19.4754 9.5V13.597L20.8554 16.753C20.9245 16.9109 20.9601 17.0814 20.9601 17.2538C20.9601 17.9441 20.4005 18.5038 19.7101 18.5038L14.9754 18.5053C14.9754 20.1621 13.6323 21.5053 11.9754 21.5053C10.3777 21.5053 9.07179 20.2563 8.98054 18.6815L8.975 18.503L4.25032 18.5038C4.07898 18.5038 3.90947 18.4685 3.75231 18.4003C3.11911 18.1252 2.82876 17.389 3.1038 16.7558L4.47545 13.5979V9.4999C4.47605 5.34511 7.82754 2 11.9754 2ZM13.475 18.503L10.4754 18.5053C10.4754 19.3337 11.147 20.0053 11.9754 20.0053C12.7551 20.0053 13.3959 19.4104 13.4685 18.6497L13.475 18.503ZM11.9754 3.5C8.65529 3.5 5.97593 6.17426 5.97545 9.5V13.9096L4.63147 17.0038H19.3279L17.9754 13.9106L17.9755 9.51286L17.9718 9.28766C17.8607 6.05418 15.217 3.5 11.9754 3.5Z" fill="#222222"/>
</svg>
