<svg width="24" height="24" viewBox="0 0 24 24" fill="none" xmlns="http://www.w3.org/2000/svg">
<path d="M11.9876 2C13.4351 2 14.7878 2.40688 15.9353 3.11449C15.5934 3.47976 15.329 3.91822 15.1682 4.40376C14.2457 3.83008 13.1554 3.4996 11.9876 3.4996C8.66297 3.4996 5.97997 6.17313 5.97949 9.49798V13.9064L4.63369 16.9997H19.3502L17.9958 13.9074L17.9959 9.51083L17.9921 9.28569C17.9884 9.17735 17.9818 9.06977 17.9725 8.96303C18.1435 8.98863 18.3185 9.00189 18.4966 9.00189C18.8347 9.00189 19.1616 8.95409 19.4709 8.8649C19.4816 8.99139 19.4892 9.11881 19.4936 9.2471L19.4978 9.49798V13.5938L20.8797 16.749C20.9489 16.9069 20.9846 17.0773 20.9846 17.2496C20.9846 17.9398 20.4241 18.4993 19.7329 18.4993L14.9917 18.5008C14.9917 20.1572 13.6467 21.5 11.9876 21.5C10.3878 21.5 9.08004 20.2514 8.98867 18.677L8.98312 18.4985L4.25202 18.4993C4.08044 18.4993 3.9107 18.4641 3.75334 18.3959C3.11928 18.1209 2.82853 17.3848 3.10394 16.7518L4.47746 13.5948V9.49787C4.47805 5.3442 7.8341 2 11.9876 2ZM13.4892 18.4985L10.4856 18.5008C10.4856 19.329 11.1581 20.0004 11.9876 20.0004C12.7684 20.0004 13.41 19.4057 13.4828 18.6452L13.4892 18.4985Z" fill="#222222"/>
<circle cx="18.5" cy="5.5" r="2.5" fill="#FF534A"/>
</svg>

