<svg width="24" height="24" viewBox="0 0 24 24" fill="none" xmlns="http://www.w3.org/2000/svg">
<path d="M8 4L8 6M16 4V6" stroke="currentColor" stroke-width="2.5" stroke-linecap="round"/>
<path fill-rule="evenodd" clip-rule="evenodd" d="M3.5 10.85V18.9999V20.4999H20.5L20.4999 18.9354L20.5 10.85H3.5ZM3.59213 8.15H20.4156C20.1845 6.47297 19.403 5.5 17.1759 5.5H6.82332C4.62219 5.5 3.83285 6.49036 3.59213 8.15ZM14.9546 13.0454C15.4818 13.5726 15.4818 14.4274 14.9546 14.9546L12.596 17.3132C11.9907 17.9185 11.0093 17.9185 10.404 17.3132L9.04541 15.9546C8.5182 15.4274 8.5182 14.5726 9.04541 14.0454C9.57261 13.5182 10.4274 13.5182 10.9546 14.0454L11.5 14.5908L13.0454 13.0454C13.5726 12.5182 14.4274 12.5182 14.9546 13.0454Z" fill="currentColor"/>
<path d="M3.5 10.85V10.35H3V10.85H3.5ZM3.5 20.4999H3V20.9999H3.5V20.4999ZM20.5 20.4999V20.9999H21L21 20.4999L20.5 20.4999ZM20.4999 18.9354L19.9999 18.9354V18.9354L20.4999 18.9354ZM20.5 10.85L21 10.85L21 10.35H20.5V10.85ZM3.59213 8.15L3.09731 8.07823L3.01437 8.65H3.59213V8.15ZM20.4156 8.15V8.65H20.9892L20.9109 8.08175L20.4156 8.15ZM14.9546 14.9546L15.3081 15.3081V15.3081L14.9546 14.9546ZM12.596 17.3132L12.9496 17.6667H12.9496L12.596 17.3132ZM10.404 17.3132L10.0504 17.6667V17.6667L10.404 17.3132ZM9.04541 15.9546L9.39896 15.601V15.601L9.04541 15.9546ZM9.04541 14.0454L8.69185 13.6919L8.69185 13.6919L9.04541 14.0454ZM10.9546 14.0454L11.3081 13.6919L11.3081 13.6919L10.9546 14.0454ZM11.5 14.5908L11.1464 14.9444L11.5 15.2979L11.8536 14.9444L11.5 14.5908ZM13.0454 13.0454L12.6919 12.6919L12.6919 12.6919L13.0454 13.0454ZM4 18.9999V10.85H3V18.9999H4ZM4 20.4999V18.9999H3V20.4999H4ZM20.5 19.9999H3.5V20.9999H20.5V19.9999ZM19.9999 18.9354L20 20.5L21 20.4999L20.9999 18.9354L19.9999 18.9354ZM20 10.85L19.9999 18.9354L20.9999 18.9354L21 10.85L20 10.85ZM20.5 10.35H3.5V11.35H20.5V10.35ZM3.59213 8.65H20.4156V7.65H3.59213V8.65ZM17.1759 6C18.2239 6 18.8343 6.22949 19.2095 6.56758C19.5865 6.90722 19.8121 7.43316 19.9203 8.21825L20.9109 8.08175C20.788 7.1898 20.5072 6.39075 19.8789 5.82464C19.2489 5.25699 18.3549 5 17.1759 5V6ZM6.82332 6H17.1759V5H6.82332V6ZM4.08695 8.22177C4.19944 7.44621 4.42845 6.91708 4.80817 6.57328C5.18497 6.23211 5.79201 6 6.82332 6V5C5.65351 5 4.76531 5.26307 4.13698 5.83199C3.51156 6.39827 3.22554 7.19415 3.09731 8.07823L4.08695 8.22177ZM15.3081 15.3081C16.0306 14.5857 16.0306 13.4143 15.3081 12.6919L14.601 13.399C14.933 13.7309 14.933 14.2691 14.601 14.601L15.3081 15.3081ZM12.9496 17.6667L15.3081 15.3081L14.601 14.601L12.2425 16.9596L12.9496 17.6667ZM10.0504 17.6667C10.851 18.4673 12.149 18.4673 12.9496 17.6667L12.2425 16.9596C11.8324 17.3697 11.1676 17.3697 10.7575 16.9596L10.0504 17.6667ZM8.69185 16.3081L10.0504 17.6667L10.7575 16.9596L9.39896 15.601L8.69185 16.3081ZM8.69185 13.6919C7.96938 14.4143 7.96938 15.5857 8.69185 16.3081L9.39896 15.601C9.06701 15.2691 9.06701 14.7309 9.39896 14.399L8.69185 13.6919ZM11.3081 13.6919C10.5857 12.9694 9.41432 12.9694 8.69185 13.6919L9.39896 14.399C9.73091 14.067 10.2691 14.067 10.601 14.399L11.3081 13.6919ZM11.8536 14.2373L11.3081 13.6919L10.601 14.399L11.1464 14.9444L11.8536 14.2373ZM12.6919 12.6919L11.1464 14.2373L11.8536 14.9444L13.399 13.399L12.6919 12.6919ZM15.3081 12.6919C14.5857 11.9694 13.4143 11.9694 12.6919 12.6919L13.399 13.399C13.7309 13.067 14.2691 13.067 14.601 13.399L15.3081 12.6919Z" fill="currentColor"/>
</svg>
