<svg width="24" height="24" viewBox="0 0 24 24" fill="none" xmlns="http://www.w3.org/2000/svg">
<path d="M11.5 20C9.81886 20 8.17547 19.5015 6.77766 18.5675C5.37984 17.6335 4.29037 16.306 3.64703 14.7528C3.00368 13.1996 2.83535 11.4906 3.16333 9.84173C3.4913 8.1929 4.30085 6.67834 5.4896 5.4896C6.67834 4.30085 8.1929 3.4913 9.84173 3.16333C11.4906 2.83535 13.1996 3.00368 14.7528 3.64703C16.306 4.29037 17.6335 5.37984 18.5675 6.77766C19.5015 8.17547 20 9.81886 20 11.5C20 12.9053 19.66 14.2304 19.0556 15.3977L20 20L15.3977 19.0556C14.2304 19.66 12.9044 20 11.5 20Z" stroke="#222222" stroke-width="1.5" stroke-linecap="round" stroke-linejoin="round"/>
</svg>
