<svg width="24" height="24" viewBox="0 0 24 24" fill="none" xmlns="http://www.w3.org/2000/svg">
<path d="M12.0001 2C17.5238 2 22.0016 6.47784 22.0016 12.0016C22.0016 17.5253 17.5238 22.003 12.0001 22.003C6.47638 22.003 1.99854 17.5253 1.99854 12.0016C1.99854 6.47784 6.47638 2 12.0001 2ZM14.939 16.5013H9.06118C9.71322 18.9155 10.8466 20.503 12.0001 20.503C13.1536 20.503 14.2869 18.9155 14.939 16.5013ZM7.5084 16.5019L4.78591 16.5017C5.74425 18.0347 7.1777 19.2403 8.88008 19.9123C8.3578 19.0926 7.92681 18.0662 7.60981 16.8968L7.5084 16.5019ZM19.2143 16.5017L16.4918 16.5019C16.168 17.8357 15.7004 19.0014 15.119 19.9123C16.716 19.2824 18.0757 18.1834 19.0291 16.7853L19.2143 16.5017ZM7.09351 10.0009H3.7359L3.73115 10.0182C3.57906 10.6545 3.49854 11.3186 3.49854 12.0016C3.49854 13.0578 3.69112 14.0689 4.0431 15.0019L7.21626 15.0015C7.07396 14.0524 6.99854 13.0442 6.99854 12.0016C6.99854 11.3176 7.031 10.6483 7.09351 10.0009ZM15.397 10.001H8.60316C8.53514 10.6413 8.49853 11.311 8.49853 12.0016C8.49853 13.0611 8.58467 14.0714 8.73827 15.0016H15.2619C15.4155 14.0714 15.5016 13.0611 15.5016 12.0016C15.5016 11.311 15.465 10.6413 15.397 10.001ZM20.2647 10.0001L16.9067 10.0009C16.9692 10.6484 17.0016 11.3176 17.0016 12.0016C17.0016 13.0442 16.9262 14.0524 16.7839 15.0015L19.9571 15.0019C20.309 14.0689 20.5016 13.0578 20.5016 12.0016C20.5016 11.3122 20.4196 10.6419 20.2647 10.0001ZM8.88113 4.0907L8.85822 4.09942C6.81091 4.91413 5.1549 6.50144 4.25023 8.5013L7.29835 8.50167C7.61171 6.74888 8.15855 5.22295 8.88113 4.0907ZM12.0001 3.5L11.8844 3.5053C10.619 3.62105 9.39651 5.62302 8.8288 8.50125H15.1714C14.6052 5.63109 13.388 3.63228 12.1264 3.50631L12.0001 3.5ZM15.1201 4.09076L15.2269 4.26485C15.8961 5.37732 16.4043 6.8372 16.7018 8.50167L19.7499 8.5013C18.8853 6.5899 17.3343 5.05536 15.4113 4.21203L15.1201 4.09076Z" fill="currentColor"/>
</svg>
