<svg width="24" height="24" viewBox="0 0 24 24" fill="none" xmlns="http://www.w3.org/2000/svg">
<path fill-rule="evenodd" clip-rule="evenodd" d="M17.8988 21.0144H21.2053H21.9971L21.9542 20.2238C21.9262 19.7062 21.696 19.1328 21.3831 18.6019C21.0604 18.0547 20.61 17.485 20.0611 16.9676C18.9715 15.9404 17.4172 15.0508 15.6129 15.0508C15.4105 15.0508 15.2139 15.0578 15.0229 15.0713C15.5549 15.5226 16.034 16.0454 16.4422 16.6373C17.4238 16.8413 18.3182 17.3861 19.0322 18.0591C19.4834 18.4845 19.8436 18.9442 20.0909 19.3637C20.1214 19.4154 20.1497 19.4657 20.1759 19.5144H17.689C17.7959 19.9901 17.8672 20.4903 17.8988 21.0144Z" fill="currentColor"/>
<path fill-rule="evenodd" clip-rule="evenodd" d="M13.5948 11.7778C13.3031 12.0991 12.9758 12.3875 12.6191 12.6368C13.3523 13.4775 14.4277 14.0137 15.6263 14.0137C17.8355 14.0137 19.6263 12.2201 19.6263 10.0275C19.6263 7.83494 17.8355 6.01367 15.6263 6.01367C15.3351 6.01367 15.0512 6.04484 14.7777 6.10397C14.9276 6.5102 15.0289 6.93427 15.0737 7.37032C15.252 7.33321 15.4369 7.31367 15.6263 7.31367C17.1082 7.31367 18.3263 8.54356 18.3263 10.0275C18.3263 11.4998 17.1199 12.7137 15.6263 12.7137C14.8197 12.7137 14.0912 12.3493 13.5948 11.7778Z" fill="currentColor"/>
<path d="M13.5395 7.99949C13.5395 10.2402 11.7222 12.069 9.48945 12.069C7.26336 12.069 5.43945 10.2135 5.43945 7.96602C5.43945 5.72529 7.25666 3.89648 9.48945 3.89648C11.7155 3.89648 13.5395 5.75199 13.5395 7.99949Z" stroke="currentColor" stroke-width="1.5"/>
<path d="M2.91016 20.2628H16.2016C16.111 18.3589 13.613 14.6465 9.86156 14.6465C4.95445 14.6465 3.14551 18.3589 2.91016 20.2628Z" stroke="currentColor" stroke-width="1.5"/>
</svg>
