<svg width="16" height="16" viewBox="0 0 16 16" fill="none" xmlns="http://www.w3.org/2000/svg">
<path d="M7.5426 10.3328C7.65746 9.97715 7.81713 9.64162 8.0148 9.33282H2.83518C2.00717 9.33282 1.33594 10.004 1.33594 10.8321V11.2172C1.33594 11.8124 1.54828 12.388 1.93479 12.8406C2.97899 14.0635 4.56966 14.6669 6.66693 14.6669C7.28773 14.6669 7.8642 14.614 8.39533 14.5079C8.15586 14.2324 7.9506 13.9264 7.78613 13.5964C7.43713 13.6434 7.0642 13.6669 6.66693 13.6669C4.84137 13.6669 3.53078 13.1697 2.69524 12.1912C2.46334 11.9197 2.33594 11.5743 2.33594 11.2172V10.8321C2.33594 10.5564 2.55946 10.3328 2.83518 10.3328H7.5426ZM6.66693 1.33594C8.50786 1.33594 10.0003 2.82832 10.0003 4.66927C10.0003 6.51022 8.50786 8.00262 6.66693 8.00262C4.82596 8.00262 3.33357 6.51022 3.33357 4.66927C3.33357 2.82832 4.82596 1.33594 6.66693 1.33594ZM6.66693 2.33594C5.37824 2.33594 4.33357 3.38061 4.33357 4.66927C4.33357 5.95794 5.37824 7.00262 6.66693 7.00262C7.9556 7.00262 9.00026 5.95794 9.00026 4.66927C9.00026 3.38061 7.9556 2.33594 6.66693 2.33594ZM15.3336 11.6662C15.3336 13.6912 13.6919 15.3328 11.6669 15.3328C9.64186 15.3328 8.00026 13.6912 8.00026 11.6662C8.00026 9.64115 9.64186 7.99948 11.6669 7.99948C13.6919 7.99948 15.3336 9.64115 15.3336 11.6662ZM12.2359 9.76382C12.1058 9.63368 11.8947 9.63368 11.7645 9.76382C11.6344 9.89402 11.6344 10.1051 11.7645 10.2352L12.8621 11.3328H10.0003C9.81613 11.3328 9.66693 11.4821 9.66693 11.6662C9.66693 11.8503 9.81613 11.9995 10.0003 11.9995H12.8622L11.7645 13.0972C11.6344 13.2274 11.6344 13.4384 11.7645 13.5686C11.8947 13.6988 12.1058 13.6988 12.2359 13.5686L13.9026 11.9019C13.9381 11.8665 13.9639 11.825 13.98 11.7809C13.9924 11.747 13.9995 11.7104 14.0002 11.6724L14.0003 11.6662C14.0003 11.6148 13.9886 11.566 13.9678 11.5226C13.9576 11.5012 13.945 11.4806 13.9299 11.4614C13.9207 11.4496 13.9106 11.4383 13.8999 11.4278L12.2359 9.76382Z" fill="#212121"/>
</svg>
