<svg width="24" height="24" viewBox="0 0 24 24" fill="none" xmlns="http://www.w3.org/2000/svg">
<path fill-rule="evenodd" clip-rule="evenodd" d="M12.643 12.9992C14.3529 11.9904 15.5001 10.1293 15.5001 8.00024C15.5001 6.94768 15.1657 5.94964 14.603 5.08394C14.8844 5.02886 15.1751 5 15.4726 5C17.9578 5 19.9726 7.01472 19.9726 9.5C19.9726 11.9853 17.9578 14 15.4726 14C14.4005 14 13.416 13.6251 12.643 12.9992Z" fill="currentColor"/>
<path d="M1.8335 20.9873C2.84461 11.4873 15.9891 11.4874 17.0002 20.987L1.8335 20.9873Z" fill="currentColor"/>
<path fill-rule="evenodd" clip-rule="evenodd" d="M18.1047 20.9998L21.9999 20.9997C21.5551 16.8935 18.37 14.895 15.2578 15.0042C16.844 16.3898 17.9502 18.4085 18.1047 20.9998Z" fill="currentColor"/>
<path d="M14.4121 8.01562C14.4121 10.777 12.1735 13.0156 9.41211 13.0156C6.65069 13.0156 4.41211 10.777 4.41211 8.01562C4.41211 5.2542 6.65069 3.01562 9.41211 3.01562C12.1735 3.01562 14.4121 5.2542 14.4121 8.01562Z" fill="currentColor"/>
</svg>
