<svg width="16" height="16" viewBox="0 0 16 16" fill="none" xmlns="http://www.w3.org/2000/svg">
<path d="M11.6669 7.99955C13.6919 7.99955 15.3336 9.64115 15.3336 11.6662C15.3336 13.6912 13.6919 15.3329 11.6669 15.3329C9.64186 15.3329 8.00026 13.6912 8.00026 11.6662C8.00026 9.64115 9.64186 7.99955 11.6669 7.99955ZM8.01506 9.33242C7.81726 9.64128 7.6576 9.97688 7.54266 10.3326L2.83594 10.3328C2.55979 10.3328 2.33594 10.5567 2.33594 10.8328V11.4377C2.33594 11.8748 2.5266 12.2901 2.85804 12.5751C3.69677 13.2962 4.96078 13.6669 6.66693 13.6669C7.06613 13.6669 7.4412 13.6466 7.79233 13.6063C7.95826 13.9397 8.16746 14.2489 8.41166 14.5265C7.87686 14.6203 7.29486 14.6669 6.66693 14.6669C4.74058 14.6669 3.24803 14.2292 2.20612 13.3334C1.6537 12.8585 1.33594 12.1662 1.33594 11.4377V10.8328C1.33594 10.0044 2.00751 9.33282 2.83594 9.33282L8.01506 9.33242ZM10.0623 9.97702L10.0161 10.0156L9.97753 10.0618C9.8988 10.1755 9.8988 10.3272 9.97753 10.4409L10.0161 10.487L11.1958 11.6666L10.0179 12.8445L9.97926 12.8907C9.90053 13.0043 9.90053 13.1561 9.97926 13.2697L10.0179 13.316L10.064 13.3545C10.1777 13.4332 10.3294 13.4332 10.4431 13.3545L10.4893 13.316L11.6671 12.1379L12.8465 13.3174L12.8927 13.356C13.0063 13.4348 13.1581 13.4348 13.2717 13.356L13.3179 13.3174L13.3565 13.2713C13.4352 13.1575 13.4352 13.0058 13.3565 12.8921L13.3179 12.846L12.1385 11.6666L13.3197 10.4871L13.3583 10.4409C13.4371 10.3272 13.4371 10.1755 13.3583 10.0618L13.3197 10.0156L13.2736 9.97708C13.1599 9.89835 13.0082 9.89835 12.8945 9.97708L12.8483 10.0156L11.6671 11.1954L10.4875 10.0156L10.4413 9.97702C10.3439 9.90955 10.2185 9.89988 10.1131 9.94808L10.0623 9.97702ZM6.66693 1.33594C8.50786 1.33594 10.0003 2.82832 10.0003 4.66927C10.0003 6.51022 8.50786 8.00262 6.66693 8.00262C4.82596 8.00262 3.33357 6.51022 3.33357 4.66927C3.33357 2.82832 4.82596 1.33594 6.66693 1.33594ZM6.66693 2.33594C5.37824 2.33594 4.33357 3.38061 4.33357 4.66927C4.33357 5.95794 5.37824 7.00262 6.66693 7.00262C7.9556 7.00262 9.00026 5.95794 9.00026 4.66927C9.00026 3.38061 7.9556 2.33594 6.66693 2.33594Z" fill="#212121"/>
</svg>
