<svg width="16" height="16" viewBox="0 0 16 16" fill="none" xmlns="http://www.w3.org/2000/svg">
<path d="M11.6669 7.99955C13.6919 7.99955 15.3336 9.64115 15.3336 11.6662C15.3336 13.6912 13.6919 15.3329 11.6669 15.3329C9.64186 15.3329 8.00026 13.6912 8.00026 11.6662C8.00026 9.64115 9.64186 7.99955 11.6669 7.99955ZM8.01506 9.33242C7.81726 9.64128 7.6576 9.97688 7.54266 10.3326L2.83518 10.3328C2.55946 10.3328 2.33594 10.5564 2.33594 10.8321V11.2172C2.33594 11.5743 2.46334 11.9197 2.69524 12.1912C3.53078 13.1697 4.84137 13.6669 6.66693 13.6669C7.06453 13.6669 7.4378 13.6433 7.78706 13.5963C7.95053 13.9262 8.15553 14.232 8.39473 14.5072C7.8644 14.614 7.2878 14.6669 6.66693 14.6669C4.56966 14.6669 2.97899 14.0635 1.93479 12.8406C1.54828 12.388 1.33594 11.8124 1.33594 11.2172V10.8321C1.33594 10.004 2.00717 9.33282 2.83518 9.33282L8.01506 9.33242ZM11.6669 9.33282L11.607 9.33822C11.4709 9.36288 11.3637 9.47022 11.3389 9.60629L11.3336 9.66615L11.3329 11.3329H9.66953L9.6096 11.3382C9.47353 11.363 9.36626 11.4702 9.34153 11.6063L9.3362 11.6662L9.34153 11.7261C9.36626 11.8622 9.47353 11.9695 9.6096 11.9942L9.66953 11.9996H11.3329L11.3336 13.6662L11.3389 13.7261C11.3637 13.8622 11.4709 13.9694 11.607 13.9942L11.6669 13.9995L11.7268 13.9942C11.8629 13.9694 11.9702 13.8622 11.9949 13.7261L12.0003 13.6662L11.9996 11.9996H13.6695L13.7294 11.9942C13.8655 11.9695 13.9728 11.8622 13.9975 11.7261L14.0029 11.6662L13.9975 11.6063C13.9728 11.4702 13.8655 11.363 13.7294 11.3382L13.6695 11.3329H11.9996L12.0003 9.66615L11.9949 9.60629C11.9702 9.47022 11.8629 9.36288 11.7268 9.33822L11.6669 9.33282ZM6.66693 1.33594C8.50786 1.33594 10.0003 2.82832 10.0003 4.66927C10.0003 6.51022 8.50786 8.00262 6.66693 8.00262C4.82596 8.00262 3.33357 6.51022 3.33357 4.66927C3.33357 2.82832 4.82596 1.33594 6.66693 1.33594ZM6.66693 2.33594C5.37824 2.33594 4.33357 3.38061 4.33357 4.66927C4.33357 5.95794 5.37824 7.00262 6.66693 7.00262C7.9556 7.00262 9.00026 5.95794 9.00026 4.66927C9.00026 3.38061 7.9556 2.33594 6.66693 2.33594Z" fill="#222222"/>
</svg>
