<svg width="24" height="24" viewBox="0 0 24 24" fill="none" xmlns="http://www.w3.org/2000/svg">
<path d="M12.8197 5.57912L11.999 6.40163L11.1757 5.57838C9.07663 3.47931 5.67336 3.47931 3.5743 5.57838C1.47523 7.67744 1.47523 11.0807 3.5743 13.1798L11.4697 21.0751C11.7626 21.368 12.2375 21.368 12.5304 21.0751L20.4318 13.1783C22.5262 11.0723 22.5298 7.67857 20.4304 5.57912C18.3275 3.47623 14.9226 3.47623 12.8197 5.57912ZM19.3682 12.1206L12 19.4842L4.63496 12.1191C3.12167 10.6058 3.12167 8.15232 4.63496 6.63904C6.14824 5.12575 8.60175 5.12575 10.1151 6.63904L11.4725 7.99648C11.7704 8.29435 12.2551 8.28854 12.5457 7.98363L13.8804 6.63978C15.3975 5.12268 17.8526 5.12268 19.3697 6.63978C20.8834 8.15343 20.8808 10.5997 19.3682 12.1206Z" fill="#212121"/>
</svg>
