<svg width="33" height="32" viewBox="0 0 33 32" fill="none" xmlns="http://www.w3.org/2000/svg">
<circle cx="16.5" cy="16" r="15.7143" fill="#333333" stroke="#333333" stroke-width="0.571429"/>
<path d="M16.7546 9.44943C17.7055 9.44943 18.8975 8.80426 19.6073 7.94403C20.2501 7.16444 20.7189 6.07572 20.7189 4.98699C20.7189 4.83913 20.7055 4.69128 20.6787 4.57031C19.6207 4.61064 18.3484 5.28269 17.585 6.18325C16.9823 6.86874 16.4332 7.94403 16.4332 9.0462C16.4332 9.20749 16.46 9.36879 16.4734 9.42255C16.5403 9.43599 16.6475 9.44943 16.7546 9.44943ZM13.4064 25.7132C14.7055 25.7132 15.2814 24.8395 16.9019 24.8395C18.5492 24.8395 18.9109 25.6863 20.3573 25.6863C21.7769 25.6863 22.7278 24.3691 23.6251 23.0787C24.6296 21.6002 25.0448 20.1486 25.0716 20.0813C24.9778 20.0545 22.2591 18.9389 22.2591 15.8071C22.2591 13.092 24.4019 11.8688 24.5225 11.7747C23.1028 9.7317 20.9466 9.67793 20.3573 9.67793C18.7635 9.67793 17.4644 10.6457 16.6475 10.6457C15.7635 10.6457 14.5984 9.7317 13.2189 9.7317C10.5939 9.7317 7.92871 11.9092 7.92871 16.0221C7.92871 18.5759 8.91978 21.2776 10.1385 23.0249C11.1832 24.5035 12.0939 25.7132 13.4064 25.7132Z" fill="white"/>
</svg>
