<svg width="25" height="24" viewBox="0 0 25 24" fill="none" xmlns="http://www.w3.org/2000/svg">
<circle cx="12.5" cy="12" r="11.7857" fill="white" stroke="#C8C8C8" stroke-width="0.428571"/>
<path d="M15.6785 8.14289C14.9285 7.39336 14.5267 6.94336 12.6785 6.94336C10.0583 6.94336 8.02852 8.75555 8.02852 12.0652C8.02852 15.3967 10.273 16.9935 12.9634 16.9935C15.3847 16.9935 16.5895 15.9737 16.6363 13.9814H12.9634V10.5434H20.3285L20.1785 13.5435C19.8648 17.2475 17.2446 20.2935 12.9634 20.2935C8.2143 20.2935 4.72852 17.0515 4.72852 12.0652C4.72852 6.94829 8.21017 3.59766 12.6785 3.59766C16.1285 3.79336 17.3285 5.14336 17.9285 5.89289L15.6785 8.14289Z" fill="black" fill-opacity="0.5"/>
<path d="M15.6785 8.14289C14.9285 7.39336 14.5267 6.94336 12.6785 6.94336C10.0583 6.94336 8.02852 8.75555 8.02852 12.0652C8.02852 15.3967 10.273 16.9935 12.9634 16.9935C15.3847 16.9935 16.5895 15.9737 16.6363 13.9814H12.9634V10.5434H20.3285L20.1785 13.5435C19.8648 17.2475 17.2446 20.2935 12.9634 20.2935C8.2143 20.2935 4.72852 17.0515 4.72852 12.0652C4.72852 6.94829 8.21017 3.59766 12.6785 3.59766C16.1285 3.79336 17.3285 5.14336 17.9285 5.89289L15.6785 8.14289Z" fill="#4385F5"/>
<mask id="mask0_3340_55858" style="mask-type:alpha" maskUnits="userSpaceOnUse" x="4" y="1" width="16" height="11">
<path d="M11.4789 1.19922L19.4289 5.54922L15.2289 8.54922L10.7289 11.3992L4.12891 6.29922L11.4789 1.19922Z" fill="#D9D9D9"/>
</mask>
<g mask="url(#mask0_3340_55858)">
<path d="M15.6785 8.14289C14.9285 7.39336 14.5267 6.94336 12.6785 6.94336C10.0583 6.94336 8.02852 8.75555 8.02852 12.0652C8.02852 15.3967 10.273 16.9935 12.9634 16.9935C15.3847 16.9935 16.5895 15.9737 16.6363 13.9814H12.9634V10.5434H20.3285L20.1785 13.5435C19.8648 17.2475 17.2446 20.2935 12.9634 20.2935C8.2143 20.2935 4.72852 17.0515 4.72852 12.0652C4.72852 6.94829 8.21017 3.59766 12.6785 3.59766C16.1285 3.79336 17.3285 5.14336 17.9285 5.89289L15.6785 8.14289Z" fill="#EB4336"/>
</g>
<mask id="mask1_3340_55858" style="mask-type:alpha" maskUnits="userSpaceOnUse" x="0" y="7" width="12" height="12">
<path d="M5.6291 7.34766L11.3291 11.6977L3.9791 18.8977L0.829102 10.7977L5.6291 7.34766Z" fill="#D9D9D9"/>
</mask>
<g mask="url(#mask1_3340_55858)">
<path d="M15.6785 8.14289C14.9285 7.39336 14.5267 6.94336 12.6785 6.94336C10.0583 6.94336 8.02852 8.75555 8.02852 12.0652C8.02852 15.3967 10.273 16.9935 12.9634 16.9935C15.3847 16.9935 16.5895 15.9737 16.6363 13.9814H12.9634V10.5434H20.3285L20.1785 13.5435C19.8648 17.2475 17.2446 20.2935 12.9634 20.2935C8.2143 20.2935 4.72852 17.0515 4.72852 12.0652C4.72852 6.94829 8.21017 3.59766 12.6785 3.59766C16.1285 3.79336 17.3285 5.14336 17.9285 5.89289L15.6785 8.14289Z" fill="#FCBC05"/>
</g>
<mask id="mask2_3340_55858" style="mask-type:alpha" maskUnits="userSpaceOnUse" x="4" y="13" width="17" height="11">
<path d="M8.17871 13.7969L15.5287 16.1969L20.0287 20.0969L10.5787 23.8469L4.42871 16.3469L8.17871 13.7969Z" fill="#D9D9D9"/>
</mask>
<g mask="url(#mask2_3340_55858)">
<path d="M15.6785 8.29523C14.9285 7.5457 14.5267 7.0957 12.6785 7.0957C10.0583 7.0957 8.02852 8.90789 8.02852 12.2176C8.02852 15.549 10.273 16.95 12.9634 16.95C15.3847 16.95 16.5895 16.126 16.6363 14.1337H12.9634V10.6957H20.3285L20.0437 13.65C19.7285 17.4 17.1097 20.4 12.8285 20.4C8.07943 20.4 4.72852 17.2039 4.72852 12.2176C4.72852 7.10063 8.21017 3.75 12.6785 3.75C16.1285 3.9457 17.3285 5.2957 17.9285 6.04523L15.6785 8.29523Z" fill="#34A853"/>
</g>
</svg>
