<svg width="24" height="24" viewBox="0 0 24 24" fill="none" xmlns="http://www.w3.org/2000/svg">
<path fill-rule="evenodd" clip-rule="evenodd" d="M12 12C14.2091 12 16 10.2091 16 8C16 5.79086 14.2091 4 12 4C9.79086 4 8 5.79086 8 8C8 10.2091 9.79086 12 12 12ZM4 20C5.06667 13.3333 18.9333 13.3334 20 19.9998L4 20Z" fill="currentColor"/>
<path d="M4 20L3.01256 19.842L2.82728 21L4.00001 21L4 20ZM20 19.9998L20 20.9998L21.1727 20.9998L20.9874 19.8418L20 19.9998ZM15 8C15 9.65685 13.6569 11 12 11V13C14.7614 13 17 10.7614 17 8H15ZM12 5C13.6569 5 15 6.34315 15 8H17C17 5.23858 14.7614 3 12 3V5ZM9 8C9 6.34315 10.3431 5 12 5V3C9.23858 3 7 5.23858 7 8H9ZM12 11C10.3431 11 9 9.65685 9 8H7C7 10.7614 9.23858 13 12 13V11ZM4.98744 20.158C5.19468 18.8627 6.02098 17.8428 7.29401 17.1195C8.57966 16.389 10.2678 16 12 16C13.7322 16 15.4204 16.3889 16.706 17.1194C17.979 17.8427 18.8053 18.8626 19.0126 20.1578L20.9874 19.8418C20.6613 17.8038 19.3543 16.3238 17.694 15.3805C16.0463 14.4443 14.0011 14 12 14C9.99886 14 7.95367 14.4444 6.30599 15.3806C4.64569 16.3239 3.33865 17.8039 3.01256 19.842L4.98744 20.158ZM20 18.9998L3.99999 19L4.00001 21L20 20.9998L20 18.9998Z" fill="currentColor"/>
</svg>
