<svg width="24" height="24" viewBox="0 0 24 24" fill="none" xmlns="http://www.w3.org/2000/svg">
<path fill-rule="evenodd" clip-rule="evenodd" d="M11 17.3C14.4794 17.3 17.3 14.4794 17.3 11C17.3 7.52061 14.4794 4.7 11 4.7C7.52061 4.7 4.7 7.52061 4.7 11C4.7 14.4794 7.52061 17.3 11 17.3ZM11 19C15.4183 19 19 15.4183 19 11C19 6.58172 15.4183 3 11 3C6.58172 3 3 6.58172 3 11C3 15.4183 6.58172 19 11 19Z" fill="#222222"/>
<path fill-rule="evenodd" clip-rule="evenodd" d="M15.899 15.899C16.2309 15.567 16.7691 15.567 17.101 15.899L20.601 19.399C20.933 19.7309 20.933 20.2691 20.601 20.601C20.2691 20.933 19.7309 20.933 19.399 20.601L15.899 17.101C15.567 16.7691 15.567 16.2309 15.899 15.899Z" fill="#222222"/>
</svg>
