<svg width="24" height="24" viewBox="0 0 24 24" fill="none" xmlns="http://www.w3.org/2000/svg">
<path d="M10.7878 3.1041C11.283 2.10072 12.7138 2.10071 13.209 3.1041L15.567 7.88182L20.8395 8.64796C21.9468 8.80886 22.3889 10.1697 21.5877 10.9507L17.7724 14.6696L18.6731 19.9209C18.8622 21.0237 17.7047 21.8647 16.7143 21.344L11.9984 18.8647L7.28252 21.344C6.29213 21.8647 5.13459 21.0237 5.32374 19.9209L6.2244 14.6696L2.40916 10.9507C1.60791 10.1697 2.05005 8.80886 3.15735 8.64796L8.42988 7.88182L10.7878 3.1041ZM11.9984 4.04049L9.74008 8.61638C9.54344 9.01483 9.16332 9.29099 8.72361 9.35489L3.67382 10.0887L7.32788 13.6506C7.64606 13.9607 7.79125 14.4075 7.71614 14.8455L6.85353 19.8749L11.3702 17.5003C11.7635 17.2935 12.2333 17.2935 12.6266 17.5003L17.1433 19.8749L16.2807 14.8455C16.2056 14.4075 16.3508 13.9607 16.6689 13.6506L20.323 10.0887L15.2732 9.35489C14.8335 9.29099 14.4534 9.01483 14.2568 8.61638L11.9984 4.04049Z" fill="currentColor"/>
</svg>
